<?xml version="1.0" encoding="UTF-8" standalone="no"?>
<svg
   xmlns:dc="http://purl.org/dc/elements/1.1/"
   xmlns:cc="http://creativecommons.org/ns#"
   xmlns:rdf="http://www.w3.org/1999/02/22-rdf-syntax-ns#"
   xmlns:svg="http://www.w3.org/2000/svg"
   xmlns="http://www.w3.org/2000/svg"
   viewBox="0 0 4000 4000"
   height="4000"
   width="4000"
   xml:space="preserve"
   id="svg2"
   version="1.1"><metadata
     id="metadata8"><rdf:RDF><cc:Work
         rdf:about=""><dc:format>image/svg+xml</dc:format><dc:type
           rdf:resource="http://purl.org/dc/dcmitype/StillImage" /></cc:Work></rdf:RDF></metadata><defs
     id="defs6"><clipPath
       id="clipPath22"
       clipPathUnits="userSpaceOnUse"><path
         id="path20"
         d="M 0,3000 H 3000 V 0 H 0 Z" /></clipPath><clipPath
       id="clipPath34"
       clipPathUnits="userSpaceOnUse"><path
         id="path32"
         d="M 0,3000 H 3000 V 0 H 0 Z" /></clipPath><clipPath
       id="clipPath86"
       clipPathUnits="userSpaceOnUse"><path
         id="path84"
         d="M 0,3000 H 3000 V 0 H 0 Z" /></clipPath></defs><g
     transform="matrix(1.3333333,0,0,-1.3333333,0,4000)"
     id="g10"><path
       id="path12"
       style="fill:#59d0c6;fill-opacity:1;fill-rule:nonzero;stroke:none"
       d="M 1499.873,0 H 2999.999 V 3000 H 1499.873 Z" /><path
       id="path14"
       style="fill:#333333;fill-opacity:1;fill-rule:nonzero;stroke:none"
       d="M 0,0 H 1499.873 V 3000 H 0 Z" /><g
       id="g16"><g
         clip-path="url(#clipPath22)"
         id="g18"><g
           transform="translate(2126.8018,2110.5972)"
           id="g24"><path
             id="path26"
             style="fill:#f6f6f6;fill-opacity:1;fill-rule:nonzero;stroke:none"
             d="m 0,0 c 21.487,31.255 37.436,70.065 44.908,109.279 7.488,39.29 6.509,78.537 -2.831,113.498 -11.02,41.258 -33.853,77.041 -66.03,103.484 -54.169,44.514 -117.476,58.282 -183.08,39.812 -29.481,-8.3 -55.313,-22.136 -75.533,-35.577 -3.967,2.984 -7.95,5.896 -11.942,8.731 -99.351,70.528 -199.976,92.791 -266.895,99.047 -19.307,1.806 -42.548,2.8 -65.443,2.8 -21.058,0 -52.704,-0.844 -83.884,-4.86 -65.942,-8.496 -164.478,-33.748 -260.315,-105.714 -20.231,13.447 -46.084,27.294 -75.587,35.591 -65.579,18.443 -128.867,4.67 -183.019,-39.83 -32.178,-26.444 -55.012,-62.23 -66.032,-103.49 -9.338,-34.963 -10.316,-74.211 -2.826,-113.503 7.474,-39.214 23.424,-78.022 44.912,-109.276 12.833,-18.666 27.201,-34.225 42.639,-46.301 -15.604,-55.341 -25.851,-108.323 -30.476,-157.601 -4.43,-47.199 -3.837,-92.404 1.765,-134.359 4.89,-36.628 13.75,-71.865 26.331,-104.731 9.681,-25.291 21.633,-49.548 36.54,-74.158 13.844,-22.853 33.842,-45.402 60.43,-68.061 -36.404,-16.362 -66.216,-34.838 -88.811,-55.07 -43.433,-38.887 -54.92,-79.173 -56.3,-107.986 l -0.15,-0.669 v -5.55 -0.422 c 0.402,-47.681 0.095,-201.926 0.013,-239.297 l -0.025,-0.226 0.015,-4.037 -0.018,-8.09 0.032,-0.241 c 0.045,-43.205 0.039,-210.512 -0.025,-239.062 l -0.01,-3.399 0.453,-3.369 c 7.432,-55.327 40.585,-103.307 98.538,-142.605 43.662,-29.608 102.355,-54.664 174.448,-74.47 122.488,-33.653 266.875,-47.14 361.158,-48.541 l 0.73,-0.011 0.73,0.01 c 94.042,1.348 238.319,14.822 361.22,48.591 72.177,19.833 130.914,44.899 174.583,74.502 58.027,39.337 91.129,87.346 98.383,142.691 l 0.426,3.256 -0.003,3.283 c -0.021,26.827 -0.06,195.024 -0.011,239.361 l 0.014,0.119 -0.005,6.08 0.022,6.16 -0.024,0.205 c -0.022,44.702 -0.018,173.888 0.005,218.063 0.621,8.755 0.591,17.498 -0.088,26.047 -0.991,28.346 -11.809,69.838 -56.618,109.84 -22.695,20.26 -52.639,38.757 -89.206,55.133 26.416,22.559 46.299,45.011 60.082,67.766 14.906,24.608 26.858,48.865 36.54,74.157 12.582,32.871 21.441,68.107 26.329,104.729 5.604,41.954 6.198,87.16 1.767,134.362 -4.627,49.282 -14.874,102.263 -30.477,157.6 C -27.207,-34.232 -12.835,-18.668 0,0" /></g></g></g><g
       id="g28"><g
         clip-path="url(#clipPath34)"
         id="g30"><g
           transform="translate(2060.7705,1111.0541)"
           id="g36"><path
             id="path38"
             style="fill:#59d0c6;fill-opacity:1;fill-rule:nonzero;stroke:none"
             d="m 0,0 c 24.744,230.347 -1145.36,230.448 -1120.54,-0.028 -0.071,-48.77 -0.071,-97.568 -10e-4,-146.366 -0.07,-19.519 -0.07,-39.039 0,-58.557 -24.412,-154.949 226.026,-206.628 560.269,-217.58 334.557,10.929 584.252,62.678 560.272,217.565 0.126,20.347 -0.037,40.679 0.056,61.012 C -0.037,-95.969 0.126,-47.985 0,0" /></g><g
           transform="translate(2045.2595,1058.1714)"
           id="g40"><path
             id="path42"
             style="fill:#0f9696;fill-opacity:1;fill-rule:nonzero;stroke:none"
             d="m 0,0 c -35.463,-48.751 -97.963,-68.856 -153.75,-85.415 l 4.769,-235.333 c 0,0 154.125,67.642 162.578,120.691 L 7.906,12.513 C 5.543,8.188 2.912,4.003 0,0" /></g><g
           transform="translate(954.7405,1058.1714)"
           id="g44"><path
             id="path46"
             style="fill:#75f6f9;fill-opacity:1;fill-rule:nonzero;stroke:none"
             d="m 0,0 c 35.463,-48.751 97.963,-68.856 153.75,-85.415 l -4.769,-235.333 c 0,0 -154.125,67.642 -162.578,120.691 l 5.691,212.57 C -5.543,8.188 -2.912,4.003 0,0" /></g><g
           transform="translate(1500.5,1264.5804)"
           id="g48"><path
             id="path50"
             style="fill:#333333;fill-opacity:1;fill-rule:nonzero;stroke:none"
             d="m 0,0 c -146.725,0.323 -528.689,-29.916 -535.254,-163.28 -0.165,-15.455 -0.137,-207.855 0.007,-224.478 8.159,-134.325 387.288,-176.737 535.241,-176.963 146.731,-0.319 528.693,43.594 535.26,176.957 0.137,16.629 0.068,206.497 0.04,220.679 C 536.99,-30.472 145.106,0.555 0,0 m 0,-622.243 c -172.711,2.568 -561.924,48.035 -585.333,222.279 0.071,31.726 0.072,233.425 0.007,248.877 22.809,174.025 413.114,198.617 585.32,201.094 172.716,-2.575 561.93,-26.842 585.339,-201.086 -0.073,-15.46 -0.032,-217.974 -0.007,-248.877 C 562.517,-573.98 172.212,-619.773 0,-622.243" /></g><g
           transform="translate(2065.261,1185.9694)"
           id="g52"><path
             id="path54"
             style="fill:#59d0c6;fill-opacity:1;fill-rule:nonzero;stroke:none"
             d="m 0,0 c -0.093,47.985 0.071,95.969 -0.056,143.954 3.833,52.809 -52.928,93.493 -142.707,122.146 -3.128,-2.026 -6.294,-4.053 -9.524,-6.079 -50.321,-31.563 -110.097,-61.135 -168.317,-83.267 -78.968,-30.019 -162.999,-46.66 -243.011,-48.124 l -1.646,-0.031 -1.641,0.031 c -80.016,1.464 -164.048,18.105 -243.016,48.124 -58.218,22.132 -117.995,51.704 -168.317,83.267 -2.06,1.292 -4.096,2.585 -6.114,3.877 -85.296,-28.141 -139.055,-67.343 -136.302,-117.529 0.117,-48.61 -0.023,-97.805 -10e-4,-146.369 0.092,-20.332 -0.071,-40.665 0.055,-60.997 -24.434,-154.944 226.042,-206.631 560.269,-217.58 334.559,10.929 584.251,62.679 560.273,217.565 C 0.07,-40.665 -0.093,-20.332 0,0" /></g><g
           transform="translate(1886.571,1430.1133)"
           id="g56"><path
             id="path58"
             style="fill:#0f9696;fill-opacity:1;fill-rule:nonzero;stroke:none"
             d="m 0,0 c 0,0 215.642,-30.102 0.754,-193.756 l 175.038,78.23 4.435,61.445 -90.114,81.392 z" /></g><g
           transform="translate(1930.9172,983.502)"
           id="g60"><path
             id="path62"
             style="fill:#0f9696;fill-opacity:1;fill-rule:nonzero;stroke:none"
             d="M 0,0 C 51.118,14.592 94.972,48.287 122.067,93.916 L 116.045,318.845 41.797,265.748 -44.346,232.981 -39.475,-7.397 C -26.119,-6.14 -12.917,-3.687 0,0" /></g><g
           transform="translate(1113.429,1430.1133)"
           id="g64"><path
             id="path66"
             style="fill:#75f6f9;fill-opacity:1;fill-rule:nonzero;stroke:none"
             d="m 0,0 c 0,0 -215.642,-30.102 -0.754,-193.756 l -175.038,78.23 -4.435,61.445 90.114,81.392 z" /></g><g
           transform="translate(1069.0828,983.502)"
           id="g68"><path
             id="path70"
             style="fill:#75f6f9;fill-opacity:1;fill-rule:nonzero;stroke:none"
             d="m 0,0 c -51.118,14.592 -94.972,48.287 -122.067,93.916 l 6.022,224.929 74.248,-53.097 L 44.346,232.981 39.475,-7.397 C 26.119,-6.14 12.917,-3.687 0,0" /></g><g
           transform="translate(2071.2139,1403.1986)"
           id="g72"><path
             id="path74"
             style="fill:#333333;fill-opacity:1;fill-rule:nonzero;stroke:none"
             d="m 0,0 c -3.443,-6.48 -8.045,-12.512 -12.741,-17.886 -5.394,-9.619 -12.1,-18.562 -19.384,-27.048 -1.518,-6.342 -3.227,-12.672 -3.295,-18.161 0.028,-14.181 0.097,-204.05 -0.04,-220.678 -6.567,-133.364 -388.529,-178.45 -535.26,-178.132 -147.953,0.227 -527.082,43.812 -535.241,178.137 -0.144,16.623 -0.172,209.023 -0.01,224.477 0.424,8.606 -5.988,21.251 -5.736,30.686 -8.707,10.908 -15.824,23.134 -21.222,35.989 -11.84,-16.474 -19.768,-34.593 -23.115,-54.479 0.425,-50.327 0.065,-218.779 -0.01,-248.879 23.48,-174.262 411.956,-219.685 584.833,-222.278 172.286,2.493 562.927,48.219 585.826,222.286 -0.025,29.277 -0.025,182.181 0.002,229.351 C 16.777,-40.751 11.149,-18.83 0,0" /></g><g
           transform="translate(1056.0815,1436.2227)"
           id="g76"><path
             id="path78"
             style="fill:#333333;fill-opacity:1;fill-rule:nonzero;stroke:none"
             d="m 0,0 c -57.186,-24.929 -90.908,-54.461 -90.908,-80.12 0,-27.494 38.892,-75.353 148.501,-119.745 106.937,-43.312 247.93,-68.152 386.825,-68.152 138.896,0 279.888,24.84 386.826,68.152 109.609,44.392 148.501,92.251 148.501,119.745 0,25.765 -33.945,55.395 -91.513,80.385 C 882.369,-3.646 876.33,-7.551 870.177,-11.41 818.509,-43.819 757.17,-74.169 697.459,-96.868 615.826,-127.9 528.88,-145.104 446.021,-146.62 l -2.103,-0.038 -2.101,0.038 c -82.859,1.516 -169.806,18.72 -251.439,49.752 C 130.668,-74.169 69.33,-43.819 17.661,-11.411 11.644,-7.638 5.737,-3.821 0,0 m 444.418,-318.017 c -75.748,0 -150.654,6.731 -222.637,20.004 -67.061,12.366 -128.616,29.795 -182.958,51.804 -52.619,21.312 -96.552,46.516 -127.05,72.886 -34.956,30.227 -52.681,61.585 -52.681,93.203 0,27.418 13.391,53.309 39.802,76.956 22.362,20.022 54.204,38.41 94.64,54.652 l 12.51,5.026 11.072,-7.692 C 25.673,42.877 34.795,36.863 44.229,30.946 93.2,0.23 151.413,-28.564 208.146,-50.132 284.451,-79.138 365.571,-95.217 442.735,-96.628 l 1.184,-0.022 1.185,0.022 c 77.164,1.411 158.282,17.49 234.589,46.496 56.732,21.569 114.946,50.362 163.915,81.078 9.555,5.993 18.796,12.091 27.464,18.122 l 11.058,7.695 12.508,-5.005 c 40.631,-16.26 72.629,-34.677 95.105,-54.74 26.543,-23.696 40.002,-49.649 40.002,-77.138 0,-31.618 -17.725,-62.976 -52.682,-93.203 -30.496,-26.37 -74.43,-51.574 -127.05,-72.886 -54.341,-22.009 -115.896,-39.438 -182.957,-51.804 -71.983,-13.273 -146.889,-20.004 -222.638,-20.004" /></g></g></g><g
       id="g80"><g
         clip-path="url(#clipPath86)"
         id="g82"><g
           transform="translate(1499.543,1416.0195)"
           id="g88"><path
             id="path90"
             style="fill:#ffffff;fill-opacity:1;fill-rule:nonzero;stroke:none"
             d="m 0,0 c -72.602,1.327 -149.057,16.506 -221.102,43.894 -100.032,38.027 -225.404,108.191 -264.288,172.384 -17.984,29.688 -43.011,77.534 -52.68,149.956 -10.318,77.277 -0.695,167.726 28.602,268.834 42.01,144.986 112.435,255.671 209.318,328.982 83.206,62.96 168.968,84.975 226.262,92.356 21.559,2.777 47.252,4.245 74.302,4.245 20.636,0 41.398,-0.878 58.459,-2.473 57.783,-5.403 144.671,-24.627 230.463,-85.531 C 392.282,899.566 466.653,785.988 510.383,635.068 539.679,533.96 549.302,443.511 538.984,366.234 529.314,293.812 504.288,245.967 486.305,216.278 447.42,152.085 322.048,81.92 222.017,43.894 149.971,16.506 73.515,1.327 0.914,0 L 0.457,-0.008 Z" /></g><g
           transform="translate(1499.9561,2501.6709)"
           id="g92"><path
             id="path94"
             style="fill:#333333;fill-opacity:1;fill-rule:nonzero;stroke:none"
             d="m 0,0 c -19.594,0 -48.944,-0.772 -77.495,-4.45 -60.301,-7.769 -150.567,-30.941 -238.153,-97.216 -101.275,-76.633 -174.703,-191.685 -218.246,-341.959 -15.967,-55.105 -26.367,-107.602 -30.913,-156.032 -4.078,-43.445 -3.559,-84.852 1.544,-123.069 4.376,-32.779 12.271,-64.229 23.466,-93.473 8.603,-22.473 19.27,-44.103 32.611,-66.127 19.826,-32.731 58.689,-67.397 115.51,-103.037 48.165,-30.21 105.441,-58.537 161.277,-79.764 74.707,-28.4 154.077,-44.14 229.529,-45.52 l 0.914,-0.017 0.914,0.017 c 75.452,1.38 154.822,17.12 229.529,45.52 55.836,21.227 113.112,49.554 161.277,79.764 56.82,35.64 95.684,70.306 115.51,103.037 13.341,22.024 24.008,43.654 32.611,66.127 11.195,29.244 19.09,60.694 23.466,93.473 5.103,38.217 5.622,79.624 1.544,123.069 -4.546,48.43 -14.947,100.927 -30.913,156.032 -24.077,83.094 -57.724,156.23 -100.007,217.375 -36.894,53.352 -80.828,98.312 -130.581,133.632 C 213.083,-28.507 121.616,-8.27 60.787,-2.582 42.977,-0.917 21.389,0 0,0 m 0,-50 c 20.839,0 40.54,-0.907 56.133,-2.365 105.879,-9.9 333.027,-71.107 429.824,-405.176 64.174,-221.478 17.2,-335.077 -21.449,-398.88 -32.958,-54.41 -147.945,-122.493 -251.788,-161.969 -63.472,-24.129 -137.25,-40.886 -212.676,-42.266 -75.426,1.38 -149.204,18.137 -212.676,42.266 -103.843,39.476 -218.83,107.559 -251.789,161.969 -38.648,63.803 -85.622,177.402 -21.448,398.88 92.426,318.983 303.696,389.192 414.762,403.5 C -48.842,-51.172 -23.687,-50 0,-50" /></g><g
           transform="translate(1892.7355,2247.083)"
           id="g96"><path
             id="path98"
             style="fill:#333333;fill-opacity:1;fill-rule:nonzero;stroke:none"
             d="m 0,0 c 0,0 93.65,-178.072 8.346,-203.116 0,0 -27.663,-10.438 -69.775,-0.626 -9.455,2.203 -50.681,16.813 -78.521,19.705 -48.33,5.02 -119.436,-1.724 -146.747,-76.209 -43.044,-117.391 21.913,-225.391 102.521,-292.696 80.609,-67.304 265.989,-66.228 247.305,129.913 0,0 -1.207,14.12 13.304,31.305 16.784,19.876 45.391,81.391 33.652,153.391 C 98.346,-166.333 32.35,-7.406 0,0" /></g><g
           transform="translate(1107.2645,2247.083)"
           id="g100"><path
             id="path102"
             style="fill:#333333;fill-opacity:1;fill-rule:nonzero;stroke:none"
             d="m 0,0 c 0,0 -93.65,-178.072 -8.346,-203.116 0,0 27.663,-10.438 69.775,-0.626 9.455,2.203 50.681,16.813 78.521,19.705 48.33,5.02 119.436,-1.724 146.747,-76.209 43.044,-117.391 -21.913,-225.391 -102.521,-292.696 -80.609,-67.304 -265.989,-66.228 -247.305,129.913 0,0 1.207,14.12 -13.304,31.305 -16.784,19.876 -45.391,81.391 -33.652,153.391 C -98.346,-166.333 -32.35,-7.406 0,0" /></g><g
           transform="translate(1767.1752,1877.8243)"
           id="g104"><path
             id="path106"
             style="fill:#f6f6f6;fill-opacity:1;fill-rule:nonzero;stroke:none"
             d="m 0,0 c 8.386,-30.128 2.021,-58.216 -14.219,-62.737 -16.239,-4.52 -36.202,16.239 -44.589,46.367 -8.386,30.129 -2.02,58.217 14.219,62.737 C -28.349,50.887 -8.386,30.128 0,0" /></g><g
           transform="translate(1791.8798,1884.701)"
           id="g108"><path
             id="path110"
             style="fill:#f6f6f6;fill-opacity:1;fill-rule:nonzero;stroke:none"
             d="m 0,0 c 15.432,-55.441 3.718,-107.128 -26.165,-115.447 -29.884,-8.318 -66.619,29.883 -82.052,85.324 -15.432,55.441 -3.718,107.128 26.166,115.447 C -52.168,93.642 -15.432,55.441 0,0" /></g><g
           transform="translate(1208.1202,1884.701)"
           id="g112"><path
             id="path114"
             style="fill:#ffffff;fill-opacity:1;fill-rule:nonzero;stroke:none"
             d="m 0,0 c -15.432,-55.441 -3.718,-107.128 26.165,-115.447 29.884,-8.318 66.619,29.883 82.052,85.324 C 123.649,25.318 111.935,77.005 82.051,85.324 52.168,93.642 15.432,55.441 0,0" /></g><g
           transform="translate(1208.1202,1884.701)"
           id="g116"><path
             id="path118"
             style="fill:none;stroke:#1d1d1b;stroke-width:1;stroke-linecap:butt;stroke-linejoin:miter;stroke-miterlimit:10;stroke-dasharray:none;stroke-opacity:1"
             d="m 0,0 c -15.432,-55.441 -3.718,-107.128 26.165,-115.447 29.884,-8.318 66.619,29.883 82.052,85.324 C 123.649,25.318 111.935,77.005 82.051,85.324 52.168,93.642 15.432,55.441 0,0 Z" /></g><g
           transform="translate(1520.2028,1623.5129)"
           id="g120"><path
             id="path122"
             style="fill:#333333;fill-opacity:1;fill-rule:nonzero;stroke:none"
             d="m 0,0 c -3.829,-30.233 -4.612,-96.739 34.314,-103.09 24.682,-3.679 52.321,11.564 72.88,24.158 -23.288,-21.039 -56.343,-46.842 -89.804,-36.864 -35.108,11.676 -48.021,55.416 -53.967,88.054 -1.558,9.038 -2.714,18.224 -3.293,27.398 l -0.052,0.989 c -0.015,0.358 -0.033,0.628 -0.038,1.144 z" /></g><g
           transform="translate(1519.7572,1625.3022)"
           id="g124"><path
             id="path126"
             style="fill:#333333;fill-opacity:1;fill-rule:nonzero;stroke:none"
             d="m 0,0 c -0.183,-4.98 -0.707,-10.159 -1.274,-15.08 -3.124,-24.544 -8.449,-48.808 -20.628,-70.816 -26.042,-45.614 -66.466,-40.481 -104.161,-12.324 -7.427,5.446 -14.397,11.352 -21.091,17.499 7.704,-4.823 15.583,-9.318 23.666,-13.214 17.629,-8.274 41.136,-16.97 59.659,-7.394 27.074,15.242 26.985,66.116 24.567,93.728 0,0.001 -0.323,3.068 -0.323,3.068 l -0.182,1.484 -0.097,0.708 c -0.031,0.208 -0.068,0.503 -0.096,0.552 z" /></g><g
           transform="translate(1484.1832,1704.3378)"
           id="g128"><path
             id="path130"
             style="fill:#333333;fill-opacity:1;fill-rule:nonzero;stroke:none"
             d="m 0,0 c -44.514,-6.486 -60.952,-24.666 -59.08,-50.406 1.49,-20.491 39.105,-27.944 60.5,-30.531 7.804,-0.943 19.77,-1.007 26.228,-0.296 20.79,2.29 61.514,9.489 63.066,30.827 1.911,26.281 -15.267,44.682 -61.929,50.8 C 24.691,0.931 4.924,0.718 0,0" /></g><g
           transform="translate(2071.1033,2398.2283)"
           id="g132"><path
             id="path134"
             style="fill:#333333;fill-opacity:1;fill-rule:nonzero;stroke:none"
             d="m 0,0 c -118.565,97.435 -239.478,-31.696 -239.478,-31.696 l 123.065,-173.869 47.152,-107.87 C 24.652,-318.13 118.565,-97.435 0,0" /></g><g
           transform="translate(928.8967,2398.2283)"
           id="g136"><path
             id="path138"
             style="fill:#333333;fill-opacity:1;fill-rule:nonzero;stroke:none"
             d="M 0,0 C 118.565,97.435 239.478,-31.696 239.478,-31.696 L 116.413,-205.565 69.261,-313.435 C -24.652,-318.13 -118.565,-97.435 0,0" /></g></g></g></g></svg>